<mxfile host="app.diagrams.net" agent="Mozilla/5.0 (Windows NT 10.0; Win64; x64) AppleWebKit/537.36 (KHTML, like Gecko) Chrome/136.0.0.0 Safari/537.36" version="27.1.1">
  <diagram name="페이지-1" id="1UyqljApafh2tfvRd01W">
    <mxGraphModel dx="1615" dy="419" grid="1" gridSize="10" guides="1" tooltips="1" connect="1" arrows="1" fold="1" page="0" pageScale="1" pageWidth="827" pageHeight="1169" math="0" shadow="0">
      <root>
        <mxCell id="0" />
        <mxCell id="1" parent="0" />
        <mxCell id="LlmtmUKlIlZUSFvfVgRN-3" style="edgeStyle=orthogonalEdgeStyle;rounded=0;orthogonalLoop=1;jettySize=auto;html=1;" parent="1" source="LlmtmUKlIlZUSFvfVgRN-1" target="LlmtmUKlIlZUSFvfVgRN-2" edge="1">
          <mxGeometry relative="1" as="geometry">
            <Array as="points">
              <mxPoint x="420" y="400" />
              <mxPoint x="220" y="400" />
            </Array>
          </mxGeometry>
        </mxCell>
        <mxCell id="LlmtmUKlIlZUSFvfVgRN-5" style="edgeStyle=orthogonalEdgeStyle;rounded=0;orthogonalLoop=1;jettySize=auto;html=1;" parent="1" source="LlmtmUKlIlZUSFvfVgRN-1" target="LlmtmUKlIlZUSFvfVgRN-4" edge="1">
          <mxGeometry relative="1" as="geometry" />
        </mxCell>
        <mxCell id="LlmtmUKlIlZUSFvfVgRN-7" style="edgeStyle=orthogonalEdgeStyle;rounded=0;orthogonalLoop=1;jettySize=auto;html=1;" parent="1" source="LlmtmUKlIlZUSFvfVgRN-1" target="LlmtmUKlIlZUSFvfVgRN-6" edge="1">
          <mxGeometry relative="1" as="geometry">
            <Array as="points">
              <mxPoint x="420" y="400" />
              <mxPoint x="600" y="400" />
            </Array>
          </mxGeometry>
        </mxCell>
        <mxCell id="LlmtmUKlIlZUSFvfVgRN-1" value="후계자 문제" style="rounded=0;whiteSpace=wrap;html=1;" parent="1" vertex="1">
          <mxGeometry x="360" y="320" width="120" height="60" as="geometry" />
        </mxCell>
        <mxCell id="LlmtmUKlIlZUSFvfVgRN-2" value="스탈린" style="rounded=0;whiteSpace=wrap;html=1;" parent="1" vertex="1">
          <mxGeometry x="160" y="430" width="120" height="60" as="geometry" />
        </mxCell>
        <mxCell id="LlmtmUKlIlZUSFvfVgRN-4" value="트로츠키" style="rounded=0;whiteSpace=wrap;html=1;" parent="1" vertex="1">
          <mxGeometry x="360" y="430" width="120" height="60" as="geometry" />
        </mxCell>
        <mxCell id="LlmtmUKlIlZUSFvfVgRN-6" value="부하린" style="rounded=0;whiteSpace=wrap;html=1;" parent="1" vertex="1">
          <mxGeometry x="540" y="430" width="120" height="60" as="geometry" />
        </mxCell>
        <mxCell id="Ni166XlXNgk8kxhb3kyv-2" style="edgeStyle=orthogonalEdgeStyle;rounded=0;orthogonalLoop=1;jettySize=auto;html=1;" edge="1" parent="1" source="LlmtmUKlIlZUSFvfVgRN-8" target="Ni166XlXNgk8kxhb3kyv-1">
          <mxGeometry relative="1" as="geometry" />
        </mxCell>
        <mxCell id="Ni166XlXNgk8kxhb3kyv-4" style="edgeStyle=orthogonalEdgeStyle;rounded=0;orthogonalLoop=1;jettySize=auto;html=1;" edge="1" parent="1" source="LlmtmUKlIlZUSFvfVgRN-8" target="Ni166XlXNgk8kxhb3kyv-3">
          <mxGeometry relative="1" as="geometry" />
        </mxCell>
        <mxCell id="LlmtmUKlIlZUSFvfVgRN-8" value="강철 통치" style="rounded=0;whiteSpace=wrap;html=1;" parent="1" vertex="1">
          <mxGeometry x="-560" y="680" width="120" height="60" as="geometry" />
        </mxCell>
        <mxCell id="Ni166XlXNgk8kxhb3kyv-1" value="반대파 대숙청" style="rounded=0;whiteSpace=wrap;html=1;" vertex="1" parent="1">
          <mxGeometry x="-660" y="780" width="120" height="60" as="geometry" />
        </mxCell>
        <mxCell id="Ni166XlXNgk8kxhb3kyv-3" value="충성파 포섭" style="rounded=0;whiteSpace=wrap;html=1;" vertex="1" parent="1">
          <mxGeometry x="-460" y="780" width="120" height="60" as="geometry" />
        </mxCell>
      </root>
    </mxGraphModel>
  </diagram>
</mxfile>
